<svg width="19" height="17" viewBox="0 0 19 17" fill="none" xmlns="http://www.w3.org/2000/svg">
<path fill-rule="evenodd" clip-rule="evenodd" d="M15.3976 0.932061C15.8222 0.809604 16.2656 1.05447 16.388 1.47899L18.3836 8.39692C18.506 8.82144 18.2612 9.26485 17.8367 9.38731C17.4121 9.50976 16.9687 9.2649 16.8463 8.84038L15.386 3.77815L11.2882 11.1985C11.1826 11.3897 11.0034 11.5295 10.7922 11.5852C10.581 11.641 10.3561 11.608 10.1699 11.4938L6.61674 9.31612L2.41841 15.7371C2.17662 16.1069 1.68083 16.2107 1.31104 15.9689C0.941241 15.7271 0.837472 15.2313 1.07926 14.8615L5.70278 7.79024C5.93959 7.42806 6.42146 7.31983 6.7904 7.54595L10.2923 9.69224L13.9854 3.00468L8.92317 4.46493C8.49865 4.58739 8.05523 4.34252 7.93278 3.918C7.81032 3.49349 8.05519 3.05007 8.47971 2.92762L15.3976 0.932061Z" fill="#7C8C9D"/>
</svg>
