<svg width="15" height="15" viewBox="0 0 15 15" fill="none" xmlns="http://www.w3.org/2000/svg">
<path d="M3.25757 1.13587C2.67178 0.550087 1.72204 0.550086 1.13625 1.13587C0.550463 1.72166 0.550463 2.67141 1.13625 3.25719L5.37906 7.5L1.13624 11.7428C0.550453 12.3286 0.550453 13.2783 1.13624 13.8641C1.72203 14.4499 2.67177 14.4499 3.25756 13.8641L7.50038 9.62132L11.7429 13.8638C12.3286 14.4496 13.2784 14.4496 13.8642 13.8638C14.45 13.278 14.45 12.3283 13.8642 11.7425L9.6217 7.5L13.8642 3.25754C14.4499 2.67175 14.4499 1.722 13.8642 1.13621C13.2784 0.550428 12.3286 0.550428 11.7428 1.13621L7.50038 5.37868L3.25757 1.13587Z" fill="#D5DFE9"/>
</svg>
