<svg width="22" height="20" viewBox="0 0 22 20" fill="none" xmlns="http://www.w3.org/2000/svg">
<path d="M11 6.46936C11.5523 6.46936 12 6.91708 12 7.46936V10.5755C12 11.1277 11.5523 11.5755 11 11.5755C10.4477 11.5755 10 11.1277 10 10.5755V7.46936C10 6.91708 10.4477 6.46936 11 6.46936Z" fill="#0E1C4B"/>
<path d="M11 15.3933C11.6904 15.3933 12.25 14.8337 12.25 14.1433C12.25 13.453 11.6904 12.8933 11 12.8933C10.3097 12.8933 9.75002 13.453 9.75002 14.1433C9.75002 14.8337 10.3097 15.3933 11 15.3933Z" fill="#0E1C4B"/>
<path fill-rule="evenodd" clip-rule="evenodd" d="M8.40194 2.3125C9.55664 0.312495 12.4434 0.312505 13.5981 2.3125L20.7428 14.6875C21.8975 16.6875 20.4541 19.1875 18.1447 19.1875H3.8553C1.5459 19.1875 0.102531 16.6875 1.25723 14.6875L8.40194 2.3125ZM11.866 3.3125C11.4811 2.64583 10.5189 2.64583 10.134 3.3125L2.98928 15.6875C2.60438 16.3542 3.08551 17.1875 3.8553 17.1875H18.1447C18.9145 17.1875 19.3957 16.3542 19.0108 15.6875L11.866 3.3125Z" fill="#0E1C4B"/>
</svg>
