<svg width="17" height="23" viewBox="0 0 17 23" fill="none" xmlns="http://www.w3.org/2000/svg">
<path fill-rule="evenodd" clip-rule="evenodd" d="M17.0039 12.0594C17.0039 10.4026 15.6608 9.05941 14.0039 9.05941L9.49946 9.0594L9.49946 3.92251L11.5024 5.92541C11.8929 6.31593 12.526 6.31593 12.9166 5.92541C13.3071 5.53489 13.3071 4.90172 12.9166 4.5112L9.20657 0.801194C8.81604 0.410669 8.18288 0.410669 7.79235 0.801194L4.08235 4.5112C3.69183 4.90172 3.69183 5.53489 4.08235 5.92541C4.47287 6.31593 5.10604 6.31593 5.49656 5.92541L7.49946 3.92251L7.49946 9.0594L2.99502 9.0594C1.33816 9.0594 -0.00498243 10.4026 -0.0049825 12.0594L-0.00498282 19.4913C-0.0049829 21.1481 1.33816 22.4913 2.99502 22.4913L14.0039 22.4913C15.6608 22.4913 17.0039 21.1481 17.0039 19.4913L17.0039 12.0594ZM7.49946 11.0594L2.99502 11.0594C2.44273 11.0594 1.99502 11.5071 1.99502 12.0594L1.99502 19.4913C1.99502 20.0436 2.44273 20.4913 2.99502 20.4913L14.0039 20.4913C14.5562 20.4913 15.0039 20.0436 15.0039 19.4913L15.0039 12.0594C15.0039 11.5071 14.5562 11.0594 14.0039 11.0594L9.49946 11.0594L9.49946 15.7753C9.49946 16.3276 9.05174 16.7753 8.49946 16.7753C7.94717 16.7753 7.49946 16.3276 7.49946 15.7753L7.49946 11.0594Z" fill="#1C1E27"/>
</svg>
