<svg width="21" height="21" viewBox="0 0 21 21" fill="none" xmlns="http://www.w3.org/2000/svg">
<path d="M6.96476 5.61338C6.52294 5.61338 6.16476 5.97156 6.16476 6.41338C6.16476 6.85521 6.52294 7.21338 6.96476 7.21338H14.0353C14.4771 7.21338 14.8353 6.85521 14.8353 6.41338C14.8353 5.97156 14.4771 5.61338 14.0353 5.61338H6.96476Z" fill="#7C8C9D"/>
<path d="M6.16476 9.69454C6.16476 9.25271 6.52294 8.89454 6.96476 8.89454H14.0353C14.4771 8.89454 14.8353 9.25271 14.8353 9.69454C14.8353 10.1364 14.4771 10.4945 14.0353 10.4945H6.96476C6.52294 10.4945 6.16476 10.1364 6.16476 9.69454Z" fill="#7C8C9D"/>
<path fill-rule="evenodd" clip-rule="evenodd" d="M6.26027 1.7919C4.49296 1.7919 3.06027 3.22459 3.06027 4.9919V15.2394C3.06027 17.0068 4.49296 18.4394 6.26027 18.4394H10.2543C10.5278 18.8896 11.0194 19.2081 11.6214 19.2081H13.3799C13.9819 19.2081 14.4735 18.8896 14.747 18.4394C16.511 18.4355 17.9397 17.0043 17.9397 15.2395V4.9919C17.9397 3.22459 16.507 1.7919 14.7397 1.7919H6.26027ZM10.2358 16.8081C10.2297 16.8185 10.2238 16.829 10.2181 16.8394H6.26027C5.37662 16.8394 4.66027 16.1231 4.66027 15.2394V4.9919C4.66027 4.10824 5.37662 3.3919 6.26027 3.3919H14.7397C15.6234 3.3919 16.3397 4.10824 16.3397 4.9919V15.2395C16.3397 16.1087 15.6466 16.816 14.7829 16.8389C14.7773 16.8286 14.7715 16.8183 14.7656 16.8081L14.016 15.5098C14.5174 15.0815 14.8353 14.4447 14.8353 13.7337C14.8353 12.4443 13.79 11.399 12.5007 11.399C11.8021 11.399 11.1752 11.7058 10.7474 12.192C10.6952 12.1813 10.6411 12.1757 10.5857 12.1757H6.96476C6.52294 12.1757 6.16476 12.5339 6.16476 12.9757C6.16476 13.4175 6.52294 13.7757 6.96476 13.7757H10.1664C10.1787 14.4698 10.4938 15.09 10.9854 15.5098L10.2358 16.8081ZM12.5007 16.0852L11.6214 17.6081H13.3799L12.5007 16.0852ZM11.766 13.7337C11.766 13.3279 12.0949 12.999 12.5007 12.999C12.9064 12.999 13.2353 13.3279 13.2353 13.7337C13.2353 14.1394 12.9064 14.4683 12.5007 14.4683C12.0949 14.4683 11.766 14.1394 11.766 13.7337Z" fill="#7C8C9D"/>
</svg>
