<svg width="36" height="36" viewBox="0 0 36 36" fill="none" xmlns="http://www.w3.org/2000/svg">
<rect x="0.5" y="0.5" width="35" height="35" rx="10" fill="#FF7A00"/>
<g clip-path="url(#clip0_1_14165)">
<path d="M14.2198 20.7642C14.0757 21.1242 12.5996 24.0353 10.8602 25.9555H13.2005L15.0006 27.7556L18.0001 21.9141L20.9995 27.7556L22.7997 25.9555H25.1399C23.4006 24.0353 21.9244 21.1242 21.7804 20.7642" stroke="white" stroke-width="2" stroke-linecap="round" stroke-linejoin="round"/>
<path d="M16.9768 8.84798C17.1871 7.71332 18.8129 7.71332 19.0233 8.84798V8.84798C19.1737 9.65963 20.164 9.98141 20.7628 9.4132V9.4132C21.5999 8.61888 22.9153 9.57451 22.4185 10.6161V10.6161C22.0631 11.3612 22.6752 12.2036 23.4936 12.0959V12.0959C24.6377 11.9453 25.1401 13.4915 24.126 14.0422V14.0422C23.4006 14.4361 23.4006 15.4774 24.126 15.8713V15.8713C25.1401 16.422 24.6377 17.9682 23.4936 17.8176V17.8176C22.6752 17.7099 22.0631 18.5523 22.4185 19.2974V19.2974C22.9153 20.339 21.5999 21.2946 20.7628 20.5003V20.5003C20.164 19.9321 19.1737 20.2539 19.0233 21.0655V21.0655C18.8129 22.2002 17.1871 22.2002 16.9768 21.0655V21.0655C16.8263 20.2539 15.836 19.9321 15.2372 20.5003V20.5003C14.4001 21.2946 13.0848 20.339 13.5816 19.2974V19.2974C13.9369 18.5523 13.3249 17.7099 12.5064 17.8176V17.8176C11.3623 17.9682 10.8599 16.422 11.874 15.8713V15.8713C12.5995 15.4774 12.5995 14.4361 11.874 14.0422V14.0422C10.8599 13.4915 11.3623 11.9453 12.5064 12.0959V12.0959C13.3249 12.2036 13.9369 11.3612 13.5816 10.6161V10.6161C13.0848 9.57451 14.4001 8.61888 15.2372 9.4132V9.4132C15.836 9.98141 16.8263 9.65963 16.9768 8.84798V8.84798Z" stroke="white" stroke-width="2"/>
</g>
<defs>
<clipPath id="clip0_1_14165">
<rect width="25" height="25" fill="white" transform="translate(5.5 5.5)"/>
</clipPath>
</defs>
</svg>
