<svg width="394" height="169" viewBox="0 0 394 169" fill="none" xmlns="http://www.w3.org/2000/svg">
<rect width="390" height="169" transform="translate(3)" fill="white"/>
<path fill-rule="evenodd" clip-rule="evenodd" d="M374 1H393V21H374V1ZM373 1H355V21H373V1ZM354 1H335V21H354V1ZM334 1H316V21H334V1ZM315 1H296V21H315V1ZM295 1H277V21H295V1ZM276 1H257V21H276V1ZM256 1H238V21H256V1ZM237 1H218V21H237V1ZM217 1H199V21H217V1ZM198 1H179V21H198V1ZM178 1H160V21H178V1ZM159 1H140V21H159V1ZM139 1H121V21H139V1ZM120 1H101V21H120V1ZM100 1H82V21H100V1ZM81 1H63V21H81V1ZM62 1H43V21H62V1ZM42 1H24L24 21H42V1ZM23 1H4.00002L4.00002 21H23L23 1ZM3.00002 1V21V22V42V43V63V64V84V85V105V106V126V127V147V148V168L3 169H4H23H24H42H43H62H63H81H82H100H101H120H121H139H140H159H160H178H179H198H199H217H218H237H238H256H257H276H277H295H296H315H316H334H335H354H355H373H374H393H394L394 1H393V0H3.00002V1ZM374 22H393V42H374V22ZM355 22H373V42H355V22ZM335 22H354V42H335V22ZM316 22H334V42H316V22ZM296 22H315V42H296V22ZM277 22H295V42H277V22ZM257 22H276V42H257V22ZM238 22H256V42H238V22ZM218 22H237V42H218V22ZM199 22H217V42H199V22ZM179 22H198V42H179V22ZM160 22H178V42H160V22ZM140 22H159V42H140V22ZM121 22H139V42H121V22ZM101 22H120V42H101V22ZM82 22H100V42H82V22ZM63 22H81V42H63V22ZM43 22H62V42H43V22ZM24 22H42V42H24L24 22ZM4.00002 22H23L23 42H4.00002L4.00002 22ZM4.00002 43L4.00002 63H23L23 43H4.00002ZM24 43L24 63H42V43H24ZM43 43V63H62V43H43ZM63 43V63H81V43H63ZM82 43V63H100V43H82ZM101 43V63H120V43H101ZM121 43V63H139V43H121ZM140 43V63H159V43H140ZM160 43V63H178V43H160ZM179 43V63H198V43H179ZM199 43V63H217V43H199ZM218 43V63H237V43H218ZM238 43V63H256V43H238ZM257 43V63H276V43H257ZM277 43V63H295V43H277ZM296 43V63H315V43H296ZM316 43V63H334V43H316ZM335 43V63H354V43H335ZM355 43V63H373V43H355ZM374 43V63H393V43H374ZM374 64H393V84H374V64ZM355 64H373V84H355V64ZM335 64H354V84H335V64ZM316 64H334V84H316V64ZM296 64H315V84H296V64ZM277 64H295V84H277V64ZM257 64H276V84H257V64ZM238 64H256V84H238V64ZM218 64H237V84H218V64ZM199 64H217V84H199V64ZM179 64H198V84H179V64ZM160 64H178V84H160V64ZM140 64H159V84H140V64ZM121 64H139V84H121V64ZM101 64H120V84H101V64ZM82 64H100V84H82V64ZM63 64H81V84H63V64ZM43 64H62V84H43V64ZM24 64H42V84H24L24 64ZM4.00001 64H23L23 84H4.00001L4.00001 64ZM4.00001 85L4.00001 105H23L23 85H4.00001ZM24 85L24 105H42L42 85H24ZM43 85L43 105H62L62 85H43ZM63 85L63 105H81V85H63ZM82 85V105H100V85H82ZM101 85V105H120V85H101ZM121 85V105H139V85H121ZM140 85V105H159V85H140ZM160 85V105H178V85H160ZM179 85V105H198V85H179ZM199 85V105H217V85H199ZM218 85V105H237V85H218ZM238 85V105H256V85H238ZM257 85V105H276V85H257ZM277 85V105H295V85H277ZM296 85V105H315V85H296ZM316 85V105H334V85H316ZM335 85V105H354V85H335ZM355 85V105H373V85H355ZM374 85V105H393V85H374ZM374 106H393V126H374V106ZM355 106H373V126H355V106ZM335 106H354V126H335V106ZM316 106H334V126H316V106ZM296 106H315V126H296V106ZM277 106H295V126H277V106ZM257 106H276V126H257V106ZM238 106H256V126H238V106ZM218 106H237V126H218V106ZM199 106H217V126H199V106ZM179 106H198V126H179V106ZM160 106H178V126H160V106ZM140 106H159V126H140V106ZM121 106H139V126H121V106ZM101 106H120V126H101V106ZM82 106H100V126H82V106ZM63 106H81V126H63L63 106ZM43 106H62L62 126H43L43 106ZM24 106H42L42 126H24L24 106ZM4.00001 106H23L23 126H4.00001L4.00001 106ZM4.00001 127L4 147H23L23 127H4.00001ZM24 127L24 147H42L42 127H24ZM43 127L43 147H62L62 127H43ZM63 127L63 147H81V127H63ZM82 127V147H100V127H82ZM101 127V147H120V127H101ZM121 127V147H139V127H121ZM140 127V147H159V127H140ZM160 127V147H178V127H160ZM179 127V147H198V127H179ZM199 127V147H217V127H199ZM218 127V147H237V127H218ZM238 127V147H256V127H238ZM257 127V147H276V127H257ZM277 127V147H295V127H277ZM296 127V147H315V127H296ZM316 127V147H334V127H316ZM335 127V147H354V127H335ZM355 127V147H373V127H355ZM374 127V147H393V127H374ZM374 148H393V168H374V148ZM355 148H373V168H355V148ZM335 148H354V168H335V148ZM316 148H334V168H316V148ZM296 148H315V168H296V148ZM277 148H295V168H277V148ZM257 148H276V168H257V148ZM238 148H256V168H238V148ZM218 148H237V168H218V148ZM199 148H217V168H199V148ZM179 148H198V168H179V148ZM160 148H178V168H160V148ZM140 148H159V168H140V148ZM121 148H139V168H121V148ZM101 148H120V168H101V148ZM82 148H100V168H82V148ZM63 148H81V168H63L63 148ZM43 148H62L62 168H43L43 148ZM24 148H42L42 168H24L24 148ZM4 148H23L23 168H4L4 148Z" fill="#D5DFE9"/>
<path d="M3 84.3296L22.6246 105.455L63.1068 42.25H120.89L178.375 84.3296L198.156 105.455L237.093 63.2046L276.33 21.8065L334.749 84.1593L373.985 127.261L393.126 103.751V169H211.067H3V84.3296Z" fill="#FFB219" fill-opacity="0.1"/>
<path d="M393.126 147.705H373.687L314.956 105.625L256.407 126.75L217.75 84.3296L198 127.261L159.049 87.0554L80.2394 84.3296L61.2509 63.2046H41.6132L3.00006 41.7389V169H185.059H393.126V147.705Z" fill="#0066FF" fill-opacity="0.1"/>
<path d="M393.126 147.705H373.687L314.956 105.625L256.407 126.75L217.75 84.3296L198 126.92L158.582 87.0554L79.7722 84.3296L61.2509 63.2046H41.6132L3.00007 41.7389" stroke="#0066FF" stroke-width="2"/>
<path d="M1.58521 84.1593L22.6246 105.455L64.0413 42.9315H120.423L178.375 84.3296L198.156 105.455L237.093 63.2046L275.862 22.8286L334.749 84.1593L373.985 127.261L391.741 105.455" stroke="#FFB219" stroke-width="2"/>
</svg>
