<svg width="392" height="169" viewBox="0 0 392 169" fill="none" xmlns="http://www.w3.org/2000/svg">
<rect width="390" height="169" transform="translate(1)" fill="white"/>
<path fill-rule="evenodd" clip-rule="evenodd" d="M372 1H391V21H372V1ZM371 1H353V21H371V1ZM352 1H333V21H352V1ZM332 1H314V21H332V1ZM313 1H294V21H313V1ZM293 1H275V21H293V1ZM274 1H255V21H274V1ZM254 1H236V21H254V1ZM235 1H216V21H235V1ZM215 1H197V21H215V1ZM196 1H177V21H196V1ZM176 1H158V21H176V1ZM157 1H138V21H157V1ZM137 1H119V21H137V1ZM118 1H99V21H118V1ZM98 1H80V21H98V1ZM79 1H61V21H79V1ZM60 1H41V21H60V1ZM40 1H22L22 21H40V1ZM21 1H2.00003L2.00002 21H21L21 1ZM1.00003 1V21V22V42V43V63V64V84V85V105V106V126V127V147V148V168L1 169H2H21H22H40H41H60H61H79H80H98H99H118H119H137H138H157H158H176H177H196H197H215H216H235H236H254H255H274H275H293H294H313H314H332H333H352H353H371H372H391H392L392 1H391V0H1.00003V1ZM372 22H391V42H372V22ZM353 22H371V42H353V22ZM333 22H352V42H333V22ZM314 22H332V42H314V22ZM294 22H313V42H294V22ZM275 22H293V42H275V22ZM255 22H274V42H255V22ZM236 22H254V42H236V22ZM216 22H235V42H216V22ZM197 22H215V42H197V22ZM177 22H196V42H177V22ZM158 22H176V42H158V22ZM138 22H157V42H138V22ZM119 22H137V42H119V22ZM99 22H118V42H99V22ZM80 22H98V42H80V22ZM61 22H79V42H61V22ZM41 22H60V42H41V22ZM22 22H40V42H22L22 22ZM2.00002 22H21L21 42H2.00002L2.00002 22ZM2.00002 43L2.00002 63H21L21 43H2.00002ZM22 43L22 63H40L40 43H22ZM41 43L41 63H60L60 43H41ZM61 43L61 63H79V43H61ZM80 43V63H98V43H80ZM99 43V63H118V43H99ZM119 43V63H137V43H119ZM138 43V63H157V43H138ZM158 43V63H176V43H158ZM177 43V63H196V43H177ZM197 43V63H215V43H197ZM216 43V63H235V43H216ZM236 43V63H254V43H236ZM255 43V63H274V43H255ZM275 43V63H293V43H275ZM294 43V63H313V43H294ZM314 43V63H332V43H314ZM333 43V63H352V43H333ZM353 43V63H371V43H353ZM372 43V63H391V43H372ZM372 64H391V84H372V64ZM353 64H371V84H353V64ZM333 64H352V84H333V64ZM314 64H332V84H314V64ZM294 64H313V84H294V64ZM275 64H293V84H275V64ZM255 64H274V84H255V64ZM236 64H254V84H236V64ZM216 64H235V84H216V64ZM197 64H215V84H197V64ZM177 64H196V84H177V64ZM158 64H176V84H158V64ZM138 64H157V84H138V64ZM119 64H137V84H119V64ZM99 64H118V84H99V64ZM80 64H98V84H80V64ZM61 64H79V84H61L61 64ZM41 64H60L60 84H41L41 64ZM22 64H40L40 84H22L22 64ZM2.00002 64H21L21 84H2.00001L2.00002 64ZM2.00001 85L2.00001 105H21L21 85H2.00001ZM22 85L22 105H40L40 85H22ZM41 85L41 105H60L60 85H41ZM61 85L61 105H79V85H61ZM80 85V105H98V85H80ZM99 85V105H118V85H99ZM119 85V105H137V85H119ZM138 85V105H157V85H138ZM158 85V105H176V85H158ZM177 85V105H196V85H177ZM197 85V105H215V85H197ZM216 85V105H235V85H216ZM236 85V105H254V85H236ZM255 85V105H274V85H255ZM275 85V105H293V85H275ZM294 85V105H313V85H294ZM314 85V105H332V85H314ZM333 85V105H352V85H333ZM353 85V105H371V85H353ZM372 85V105H391V85H372ZM372 106H391V126H372V106ZM353 106H371V126H353V106ZM333 106H352V126H333V106ZM314 106H332V126H314V106ZM294 106H313V126H294V106ZM275 106H293V126H275V106ZM255 106H274V126H255V106ZM236 106H254V126H236V106ZM216 106H235V126H216V106ZM197 106H215V126H197V106ZM177 106H196V126H177V106ZM158 106H176V126H158V106ZM138 106H157V126H138V106ZM119 106H137V126H119V106ZM99 106H118V126H99V106ZM80 106H98V126H80V106ZM61 106H79V126H61L61 106ZM41 106H60L60 126H41L41 106ZM22 106H40L40 126H22L22 106ZM2.00001 106H21L21 126H2.00001L2.00001 106ZM2.00001 127L2 147H21L21 127H2.00001ZM22 127L22 147H40L40 127H22ZM41 127L41 147H60L60 127H41ZM61 127L61 147H79V127H61ZM80 127V147H98V127H80ZM99 127V147H118V127H99ZM119 127V147H137V127H119ZM138 127V147H157V127H138ZM158 127V147H176V127H158ZM177 127V147H196V127H177ZM197 127V147H215V127H197ZM216 127V147H235V127H216ZM236 127V147H254V127H236ZM255 127V147H274V127H255ZM275 127V147H293V127H275ZM294 127V147H313V127H294ZM314 127V147H332V127H314ZM333 127V147H352V127H333ZM353 127V147H371V127H353ZM372 127V147H391V127H372ZM372 148H391V168H372V148ZM353 148H371V168H353V148ZM333 148H352V168H333V148ZM314 148H332V168H314V148ZM294 148H313V168H294V148ZM275 148H293V168H275V148ZM255 148H274V168H255V148ZM236 148H254V168H236V148ZM216 148H235V168H216V148ZM197 148H215V168H197V148ZM177 148H196V168H177V148ZM158 148H176V168H158V148ZM138 148H157V168H138V148ZM119 148H137V168H119V148ZM99 148H118V168H99V148ZM80 148H98V168H80V148ZM61 148H79V168H61L61 148ZM41 148H60L60 168H41L41 148ZM22 148H40L40 168H22L22 148ZM2 148H21L21 168H2L2 148Z" fill="#D5DFE9"/>
<path d="M1 147.705L20.6246 105.455H79.1869L118.125 147.875L176.375 84.3296L196.156 105.455L235.093 63.2047H312.969L332.749 84.1593H371.531L391.126 112.269V169H209.067H1V147.705Z" fill="#FF7A00" fill-opacity="0.2"/>
<path d="M391.126 147.705H371.687H274.031L254.406 126.75L215.75 84.3296L196 63.2046L176.531 41.7389H78.8753L59.2507 63.2046L20.4688 20.9546L0.999939 41.7389V169H183.059H391.126V147.705Z" fill="#0066FF" fill-opacity="0.1"/>
<path d="M391.126 147.705H371.687H274.031L254.406 126.75L215.75 84.3296L196 63.2046L176.531 41.7389H78.8753L59.2507 63.2046L20.4688 20.9546L0.999944 41.7389" stroke="#0066FF" stroke-width="2"/>
<path d="M391.126 147.705H371.687H274.031L254.406 126.75L215.75 84.3296L196 63.2046L176.531 41.7389H78.8753L59.2507 63.2046L20.4688 20.9546L0.999944 41.7389" stroke="#0066FF" stroke-width="2"/>
<path d="M1 147.705L20.6246 105.455H79.1869L118.125 147.875L176.375 84.3296L196.156 105.455L235.093 63.2047H312.969L332.749 84.1593H371.531L391.126 112.269" stroke="#FF7A00" stroke-width="2"/>
</svg>
