<svg width="394" height="169" viewBox="0 0 394 169" fill="none" xmlns="http://www.w3.org/2000/svg">
<rect width="390" height="169" transform="matrix(-1 0 0 -1 391 169)" fill="white"/>
<path fill-rule="evenodd" clip-rule="evenodd" d="M20 168H0.999969V148H20V168ZM21 168H39V148H21V168ZM40 168H59V148H40V168ZM60 168H78V148H60V168ZM79 168H98V148H79V168ZM99 168H117V148H99V168ZM118 168H137V148H118V168ZM138 168H156V148H138V168ZM157 168H176V148H157V168ZM177 168H195V148H177V168ZM196 168H215V148H196V168ZM216 168H234V148H216V168ZM235 168H254V148H235V168ZM255 168H273V148H255V168ZM274 168H293V148H274V168ZM294 168H312V148H294V168ZM313 168H331V148H313V168ZM332 168H351V148H332V168ZM352 168H370L370 148H352V168ZM371 168H390L390 148H371L371 168ZM391 168V148V147V127V126V106V105V85V84V64V63V43V42V22V21V1L391 0H390H371H370H352H351H332H331H313H312H294H293H274H273H255H254H235H234H216H215H196H195H177H176H157H156H138H137H118H117H99H98H79H78H60H59H40H39H21H20H1H0L-3.05176e-05 168H0.999969V169H391V168ZM20 147H0.999969V127H20V147ZM39 147H21V127H39V147ZM59 147H40V127H59V147ZM78 147H60V127H78V147ZM98 147H79V127H98V147ZM117 147H99V127H117V147ZM137 147H118V127H137V147ZM156 147H138V127H156V147ZM176 147H157V127H176V147ZM195 147H177V127H195V147ZM215 147H196V127H215V147ZM234 147H216V127H234V147ZM254 147H235V127H254V147ZM273 147H255V127H273V147ZM293 147H274V127H293V147ZM312 147H294V127H312V147ZM331 147H313V127H331V147ZM351 147H332V127H351V147ZM370 147H352V127H370L370 147ZM390 147H371L371 127H390L390 147ZM390 126L390 106H371L371 126H390ZM370 126L370 106H352V126H370ZM351 126V106H332V126H351ZM331 126V106H313V126H331ZM312 126V106H294V126H312ZM293 126V106H274V126H293ZM273 126V106H255V126H273ZM254 126V106H235V126H254ZM234 126V106H216V126H234ZM215 126V106H196V126H215ZM195 126V106H177V126H195ZM176 126V106H157V126H176ZM156 126V106H138V126H156ZM137 126V106H118V126H137ZM117 126V106H99V126H117ZM98 126V106H79V126H98ZM78 126V106H60V126H78ZM59 126V106H40V126H59ZM39 126V106H21V126H39ZM20 126V106H0.999969V126H20ZM20 105H0.999969V85H20V105ZM39 105H21V85H39V105ZM59 105H40V85H59V105ZM78 105H60V85H78V105ZM98 105H79V85H98V105ZM117 105H99V85H117V105ZM137 105H118V85H137V105ZM156 105H138V85H156V105ZM176 105H157V85H176V105ZM195 105H177V85H195V105ZM215 105H196V85H215V105ZM234 105H216V85H234V105ZM254 105H235V85H254V105ZM273 105H255V85H273V105ZM293 105H274V85H293V105ZM312 105H294V85H312V105ZM331 105H313V85H331V105ZM351 105H332V85H351V105ZM370 105H352V85H370L370 105ZM390 105H371L371 85H390L390 105ZM390 84L390 64H371L371 84H390ZM370 84L370 64H352L352 84H370ZM351 84L351 64H332L332 84H351ZM331 84L331 64H313V84H331ZM312 84V64H294V84H312ZM293 84V64H274V84H293ZM273 84V64H255V84H273ZM254 84V64H235V84H254ZM234 84V64H216V84H234ZM215 84V64H196V84H215ZM195 84V64H177V84H195ZM176 84V64H157V84H176ZM156 84V64H138V84H156ZM137 84V64H118V84H137ZM117 84V64H99V84H117ZM98 84V64H79V84H98ZM78 84V64H60V84H78ZM59 84V64H40V84H59ZM39 84V64H21V84H39ZM20 84V64H0.999969V84H20ZM20 63H0.999969V43H20V63ZM39 63H21V43H39V63ZM59 63H40V43H59V63ZM78 63H60V43H78V63ZM98 63H79V43H98V63ZM117 63H99V43H117V63ZM137 63H118V43H137V63ZM156 63H138V43H156V63ZM176 63H157V43H176V63ZM195 63H177V43H195V63ZM215 63H196V43H215V63ZM234 63H216V43H234V63ZM254 63H235V43H254V63ZM273 63H255V43H273V63ZM293 63H274V43H293V63ZM312 63H294V43H312V63ZM331 63H313V43H331L331 63ZM351 63H332L332 43H351L351 63ZM370 63H352L352 43H370L370 63ZM390 63H371L371 43H390L390 63ZM390 42L390 22H371L371 42H390ZM370 42L370 22H352L352 42H370ZM351 42L351 22H332L332 42H351ZM331 42L331 22H313V42H331ZM312 42V22H294V42H312ZM293 42V22H274V42H293ZM273 42V22H255V42H273ZM254 42V22H235V42H254ZM234 42V22H216V42H234ZM215 42V22H196V42H215ZM195 42V22H177V42H195ZM176 42V22H157V42H176ZM156 42V22H138V42H156ZM137 42V22H118V42H137ZM117 42V22H99V42H117ZM98 42V22H79V42H98ZM78 42V22H60V42H78ZM59 42V22H40V42H59ZM39 42V22H21V42H39ZM20 42V22H0.999969V42H20ZM20 21H0.999969V1H20V21ZM39 21H21V1H39V21ZM59 21H40V1H59V21ZM78 21H60V1H78V21ZM98 21H79V1H98V21ZM117 21H99V1H117V21ZM137 21H118V1H137V21ZM156 21H138V1H156V21ZM176 21H157V1H176V21ZM195 21H177V1H195V21ZM215 21H196V1H215V21ZM234 21H216V1H234V21ZM254 21H235V1H254V21ZM273 21H255V1H273V21ZM293 21H274V1H293V21ZM312 21H294V1H312V21ZM331 21H313V1H331L331 21ZM351 21H332L332 1H351L351 21ZM370 21H352L352 1H370L370 21ZM390 21H371L371 1H390L390 21Z" fill="#D5DFE9"/>
<path d="M0.874268 21.2954H20.313L79.0441 63.375L137.593 42.25L176.25 84.6704L196 42.0796L235.418 81.9446L314.228 84.6704L332.749 105.795H352.387L391 127.261" stroke="#0066FF" stroke-width="2"/>
<path d="M392.415 84.8407L371.375 63.5454L329.959 126.069H273.577L215.625 84.6704L195.844 63.5454L156.907 105.795L118.138 146.171L59.2508 84.8407L20.0146 41.7389L2.25905 63.5454" stroke="#FFB219" stroke-width="2"/>
</svg>
