<svg width="20" height="22" viewBox="0 0 20 22" fill="none" xmlns="http://www.w3.org/2000/svg">
<path fill-rule="evenodd" clip-rule="evenodd" d="M18 10.5067V17.2323C18 18.3369 17.1046 19.2323 16 19.2323H13.4649C13.8052 18.644 14 17.961 14 17.2324V15.5023C14 14.3351 13.4902 13.2261 12.6042 12.4662C11.1059 11.181 8.89409 11.181 7.39578 12.4662C6.50983 13.2261 6 14.3351 6 15.5023V17.2324C6 17.961 6.19476 18.644 6.53506 19.2323H4C2.89543 19.2323 2 18.3369 2 17.2323V10.5067C2 9.96083 2.2231 9.4387 2.61755 9.06139L8.61755 3.32226C9.39079 2.58264 10.6092 2.58264 11.3824 3.32226L17.3824 9.06139C17.7769 9.4387 18 9.96083 18 10.5067ZM9.97733 19.2323C8.8832 19.2201 8 18.3294 8 17.2324V15.5023C8 14.9187 8.25491 14.3642 8.69789 13.9842C9.44705 13.3417 10.553 13.3417 11.3021 13.9842C11.7451 14.3642 12 14.9187 12 15.5023V17.2324C12 18.3294 11.1168 19.2201 10.0227 19.2323H9.97733ZM9.96793 21.2323H4C1.79086 21.2323 0 19.4414 0 17.2323V10.5067C0 9.41498 0.446204 8.37072 1.23511 7.61611L7.23511 1.87698C8.78159 0.397738 11.2184 0.397736 12.7649 1.87698L18.7649 7.61611C19.5538 8.37071 20 9.41498 20 10.5067V17.2323C20 19.4414 18.2091 21.2323 16 21.2323H10.0321C10.0214 21.2324 10.0107 21.2324 10 21.2324C9.9893 21.2324 9.97861 21.2324 9.96793 21.2323Z" fill="#0E1C4B"/>
</svg>
