<svg width="24" height="24" viewBox="0 0 24 24" fill="none" xmlns="http://www.w3.org/2000/svg">
<path fill-rule="evenodd" clip-rule="evenodd" d="M0 16C0 19.4515 2.18577 22.3925 5.24862 23.5143C5.70168 23.8209 6.2481 24 6.83636 24H17.1636C17.7519 24 18.2983 23.8209 18.7514 23.5143C21.8142 22.3925 24 19.4515 24 16V8C24 3.58172 20.4183 0 16 0H8C3.58172 0 0 3.58172 0 8V16ZM16 2H8C4.68629 2 2 4.68629 2 8V16C2 17.7909 2.78464 19.3985 4.02889 20.4979C4.2865 17.5439 6.24219 15.0764 8.91438 14.077C7.86623 13.1964 7.2 11.876 7.2 10.4C7.2 7.74903 9.34903 5.6 12 5.6C14.651 5.6 16.8 7.74903 16.8 10.4C16.8 11.876 16.1338 13.1964 15.0856 14.077C17.7578 15.0764 19.7135 17.5439 19.9711 20.4979C21.2154 19.3985 22 17.7909 22 16V8C22 4.68629 19.3137 2 16 2ZM6.22335 21.7326C6.78478 21.9064 7.38146 22 8 22H16C16.6185 22 17.2152 21.9064 17.7766 21.7326C17.9152 21.5833 18 21.3834 18 21.1636C18 18.0909 15.5091 15.6 12.4364 15.6H11.5636C8.49092 15.6 6 18.0909 6 21.1636C6 21.3834 6.08475 21.5833 6.22335 21.7326ZM14.8 10.4C14.8 11.9464 13.5464 13.2 12 13.2C10.4536 13.2 9.2 11.9464 9.2 10.4C9.2 8.8536 10.4536 7.6 12 7.6C13.5464 7.6 14.8 8.8536 14.8 10.4Z" fill="#0E1C4B"/>
</svg>
