<svg width="23" height="23" viewBox="0 0 23 23" fill="none" xmlns="http://www.w3.org/2000/svg">
<path fill-rule="evenodd" clip-rule="evenodd" d="M7.45539 0.838542C9.42915 0.706186 11.4516 1.39487 12.9622 2.90539C14.9972 4.94044 15.5396 7.90051 14.5951 10.4276C14.5781 10.4729 14.577 10.5131 14.5813 10.5381C14.5832 10.5492 14.5856 10.555 14.5869 10.5573L22.2708 18.2412C23.0518 19.0222 23.0518 20.2886 22.2708 21.0696L21.028 22.3124C20.2469 23.0935 18.9806 23.0935 18.1995 22.3124L10.4968 14.6097C10.4945 14.6084 10.4888 14.6061 10.4778 14.6041C10.4532 14.5997 10.4135 14.6006 10.3685 14.6169C7.8546 15.5312 4.9245 14.9816 2.90521 12.9623C1.61267 11.6698 0.921175 10.0011 0.83221 8.30928C0.787234 7.45396 1.30057 6.79221 2.00039 6.556C2.66204 6.33267 3.42376 6.50407 3.96136 7.04166L4.8908 7.9711L7.6251 7.9711L7.6251 5.2368L6.38091 3.99261C5.86739 3.47908 5.6883 2.75671 5.86925 2.11271C6.05873 1.43838 6.63938 0.893263 7.45539 0.838542ZM10.4981 14.6105C10.498 14.6106 10.4976 14.6103 10.4969 14.6098L10.4981 14.6105ZM8.04033 2.82361L9.03931 3.82258C9.41439 4.19766 9.6251 4.70637 9.6251 5.2368L9.6251 7.9711C9.6251 9.07567 8.72967 9.9711 7.6251 9.9711H4.8908C4.36037 9.9711 3.85166 9.76039 3.47658 9.38532L2.89666 8.80539C3.06941 9.81024 3.54338 10.7721 4.31942 11.5481C5.76897 12.9977 7.87398 13.396 9.68495 12.7374C10.3908 12.4807 11.2839 12.5684 11.9102 13.1946L19.6137 20.8982L20.8566 19.6554L13.1719 11.9707C12.5401 11.3389 12.4566 10.4365 12.7216 9.72736C13.402 7.90709 13.0088 5.78045 11.548 4.3196C10.5771 3.34874 9.31405 2.84988 8.04033 2.82361Z" fill="#0E1C4B"/>
</svg>
