<svg width="17" height="17" viewBox="0 0 17 17" fill="none" xmlns="http://www.w3.org/2000/svg">
<path fill-rule="evenodd" clip-rule="evenodd" d="M9.3755 2.19663C9.3755 1.07645 10.2836 0.168365 11.4038 0.168365C12.5239 0.168365 13.432 1.07645 13.432 2.19663C13.432 3.3168 12.5239 4.22489 11.4038 4.22489C10.2836 4.22489 9.3755 3.3168 9.3755 2.19663ZM11.4038 1.76837C11.1672 1.76837 10.9755 1.9601 10.9755 2.19663C10.9755 2.43315 11.1672 2.62489 11.4038 2.62489C11.6403 2.62489 11.832 2.43315 11.832 2.19663C11.832 1.9601 11.6403 1.76837 11.4038 1.76837Z" fill="#7C8C9D"/>
<path fill-rule="evenodd" clip-rule="evenodd" d="M4.26495 5.76192C2.05581 5.76192 0.264954 7.55278 0.264954 9.76192V12.8317C0.264954 15.0408 2.05582 16.8317 4.26495 16.8317H10.886C12.8973 16.8317 14.5619 15.3472 14.8439 13.414C15.7131 13.1034 16.3351 12.2727 16.3351 11.2968C16.3351 10.3208 15.7131 9.49011 14.8439 9.17951C14.5619 7.24641 12.8973 5.76192 10.886 5.76192H8.2498C8.6009 5.39726 8.81679 4.9015 8.81679 4.35532C8.81679 3.23514 7.9087 2.32706 6.78853 2.32706C5.66835 2.32706 4.76027 3.23514 4.76027 4.35532C4.76027 4.9015 4.97615 5.39726 5.32725 5.76192H4.26495ZM13.1783 9.04903C12.8747 8.07165 11.9632 7.36192 10.886 7.36192H4.26495C2.93947 7.36192 1.86495 8.43644 1.86495 9.76192V12.8317C1.86495 14.1572 2.93947 15.2317 4.26495 15.2317H10.886C11.9632 15.2317 12.8747 14.5219 13.1783 13.5445H11.8456C10.6042 13.5445 9.59786 12.5382 9.59786 11.2968C9.59786 10.0554 10.6042 9.04903 11.8456 9.04903H13.1783ZM11.1979 11.2968C11.1979 10.939 11.4879 10.649 11.8456 10.649H14.0874C14.4451 10.649 14.7351 10.939 14.7351 11.2968C14.7351 11.6545 14.4451 11.9445 14.0874 11.9445H11.8456C11.4879 11.9445 11.1979 11.6545 11.1979 11.2968ZM6.36027 4.35532C6.36027 4.1188 6.552 3.92706 6.78853 3.92706C7.02505 3.92706 7.21679 4.1188 7.21679 4.35532C7.21679 4.59184 7.02505 4.78358 6.78853 4.78358C6.552 4.78358 6.36027 4.59184 6.36027 4.35532Z" fill="#7C8C9D"/>
</svg>
